<?xml version="1.0" encoding="iso-8859-1"?>
<!-- Generator: Adobe Illustrator 19.0.0, SVG Export Plug-In . SVG Version: 6.00 Build 0)  -->
<svg version="1.1" id="Capa_1" xmlns="http://www.w3.org/2000/svg" xmlns:xlink="http://www.w3.org/1999/xlink" x="0px" y="0px"
	 viewBox="0 0 436.907 436.907" style="enable-background:new 0 0 436.907 436.907;" xml:space="preserve">
<circle style="fill:#EFC84A;" cx="218.453" cy="218.453" r="218.453"/>
<path style="opacity:0.1;enable-background:new    ;" d="M255.644,433.689c78.035-13.392,141.93-68.124,168.267-140.891
	l-78.471-78.471h-0.006c-0.671-1.04-1.642-1.888-2.844-2.393l-35.703-14.848c-9.25-3.857-19.251-5.53-29.252-4.915l-22.44,1.347
	l-44.977-44.977c-0.006-0.005-0.011-0.012-0.017-0.017l-0.002-0.002h0c-1.077-1.005-2.609-1.474-4.141-1.134l-7.147,1.626
	l-26.065-26.065l-6.383,0.512l-17.033,1.332l33.382,73.079l-32.118,1.948l-33.896-33.896H90.447L103.11,203.4
	c-4.642,2.116-7.953,7.612-7.953,13.96c0,5.14,2.176,9.712,5.477,12.377l-0.033,0.008l2.72,2.72l-12.874,36.027L255.644,433.689z"/>
<g>
	<path style="fill:#F6C358;" d="M200.688,160.57l-2.581-11.361l7.945-1.805c2.47-0.561,4.928,0.986,5.489,3.456l0.549,2.415
		c0.561,2.47-0.986,4.928-3.456,5.489L200.688,160.57z"/>
	<path style="fill:#F6C358;" d="M204.377,268.491l-1.229,11.585l12.031,1.276c2.705,0.287,5.154-1.692,5.441-4.397l0.261-2.463
		c0.246-2.321-1.436-4.403-3.757-4.649L204.377,268.491z"/>
</g>
<polygon style="fill:#3EA69B;" points="185.479,232.034 155.562,313.947 179.068,313.947 242.461,232.034 "/>
<polygon style="fill:#E56353;" points="179.068,313.947 242.461,232.034 227.414,232.034 172.657,313.947 "/>
<polygon style="fill:#3EA69B;" points="185.653,204.12 149.423,124.797 172.857,122.959 242.461,199.664 "/>
<polygon style="fill:#E56353;" points="172.857,122.959 242.461,199.664 227.46,200.841 166.466,123.461 "/>
<polygon style="fill:#44C4A1;" points="136.752,230.384 116.808,268.491 90.453,268.491 108.26,218.631 90.453,165.922 
	116.808,165.922 136.752,206.878 "/>
<g>
	<polygon style="fill:#E56353;" points="97.042,268.491 112.534,230.61 103.982,230.61 90.453,268.491 	"/>
	<polygon style="fill:#E56353;" points="103.358,204.12 90.453,165.922 96.906,165.922 111.161,202.212 	"/>
</g>
<path style="fill:#D5D6DB;" d="M300.86,237.851c-9.982,3.423-20.537,4.857-31.07,4.222l-163.204-9.838
	c-6.437-0.388-11.414-7.039-11.414-14.873v0c0-7.834,4.977-14.485,11.414-14.874l171.036-10.328c10-0.604,20.006,1.082,29.256,4.929
	l35.709,14.851c2.341,0.973,3.866,3.26,3.866,5.795l0,0c0,2.682-1.704,5.067-4.24,5.937L300.86,237.851z"/>
<g>
	<rect x="264.943" y="202.957" style="fill:#27A2DB;" width="44.442" height="12.708"/>
	
		<rect x="236.272" y="205.143" transform="matrix(-0.9997 0.0234 -0.0234 -0.9997 491.5089 416.8891)" style="fill:#27A2DB;" width="14.09" height="12.349"/>
	
		<rect x="212.89" y="205.69" transform="matrix(-0.9997 0.0234 -0.0234 -0.9997 444.7626 418.5287)" style="fill:#27A2DB;" width="14.09" height="12.349"/>
	
		<rect x="189.749" y="206.234" transform="matrix(-0.9997 0.0234 -0.0234 -0.9997 398.5007 420.1582)" style="fill:#27A2DB;" width="14.09" height="12.349"/>
	
		<rect x="166.482" y="206.781" transform="matrix(-0.9997 0.0234 -0.0234 -0.9997 351.9865 421.7964)" style="fill:#27A2DB;" width="14.09" height="12.349"/>
	
		<rect x="143.253" y="207.327" transform="matrix(-0.9997 0.0234 -0.0234 -0.9997 305.5473 423.4321)" style="fill:#27A2DB;" width="14.09" height="12.349"/>
</g>
<g>
</g>
<g>
</g>
<g>
</g>
<g>
</g>
<g>
</g>
<g>
</g>
<g>
</g>
<g>
</g>
<g>
</g>
<g>
</g>
<g>
</g>
<g>
</g>
<g>
</g>
<g>
</g>
<g>
</g>
</svg>
