<?xml version="1.0" encoding="iso-8859-1"?>
<!-- Generator: Adobe Illustrator 19.0.0, SVG Export Plug-In . SVG Version: 6.00 Build 0)  -->
<svg version="1.1" id="Capa_1" xmlns="http://www.w3.org/2000/svg" xmlns:xlink="http://www.w3.org/1999/xlink" x="0px" y="0px"
	 viewBox="0 0 436.907 436.907" style="enable-background:new 0 0 436.907 436.907;" xml:space="preserve">
<circle style="fill:#EA8953;" cx="218.453" cy="218.453" r="218.453"/>
<path style="opacity:0.1;enable-background:new    ;" d="M90.494,273.613L251.322,434.44
	c80.079-12.085,145.889-67.641,172.663-141.861l-84.325-84.325c-0.331-0.35-0.675-0.695-1.038-1.038l-0.409-0.409l-0.04,0.009
	c-1.734-1.563-3.789-3.045-6.322-4.336v0.307c-4.062-1.946-8.704-3.004-13.653-2.901h-4.666l-34.82-34.819l-0.015,0.084
	c-17.26-19.382-43.564-31.04-72.081-31.04c-46.114,0-81.647,32.392-86.391,76.936c-5.666,1.092-12.561,4.915-18.261,10.786v-0.136
	c-12.868,12.356-11.469,25.463-11.469,25.463V273.613z"/>
<path style="fill:#44C4A1;" d="M120.217,211.052c4.737-44.556,40.27-76.954,86.408-76.954c42.894,0,80.907,26.28,90.403,65.78
	h21.166c15.506-0.284,28.23,10.495,28.23,26.004v21.91h-15.887v25.817H90.499v-24.824
	C90.499,227.946,108.17,213.367,120.217,211.052L120.217,211.052z"/>
<rect x="90.498" y="247.159" style="fill:#3EA69B;" width="255.597" height="26.464"/>
<path style="fill:#D5D6DB;" d="M140.097,207.247c0-25.894,29.767-57.758,66.487-57.758s66.487,31.863,66.487,57.758H140.097z"/>
<path style="fill:#EBF0F3;" d="M273.071,207.247c0-25.894-29.767-57.758-66.487-57.758v57.758H273.071z"/>
<circle style="fill:#2F4859;" cx="153.668" cy="273.613" r="29.201"/>
<circle style="fill:#D5D6DB;" cx="153.668" cy="273.613" r="18.971"/>
<circle style="fill:#3A556A;" cx="153.668" cy="273.613" r="8.185"/>
<rect x="206.606" y="211.712" style="fill:#64798A;" width="27.139" height="9.267"/>
<rect x="206.606" y="211.688" style="fill:#3A556A;" width="27.139" height="3.625"/>
<rect x="140.114" y="211.712" style="fill:#64798A;" width="27.139" height="9.267"/>
<rect x="140.114" y="211.688" style="fill:#3A556A;" width="27.139" height="3.625"/>
<path style="fill:#D5D6DB;" d="M331.839,202.478v23.082l14.584,0.323C346.423,225.882,347.804,210.596,331.839,202.478z"/>
<path style="fill:#E56353;" d="M101.951,221.713v25.431H90.499C90.499,247.144,89.092,234.055,101.951,221.713z"/>
<circle style="fill:#2F4859;" cx="307.814" cy="273.613" r="29.201"/>
<circle style="fill:#D5D6DB;" cx="307.814" cy="273.613" r="18.971"/>
<circle style="fill:#3A556A;" cx="307.814" cy="273.613" r="8.185"/>
<g>
</g>
<g>
</g>
<g>
</g>
<g>
</g>
<g>
</g>
<g>
</g>
<g>
</g>
<g>
</g>
<g>
</g>
<g>
</g>
<g>
</g>
<g>
</g>
<g>
</g>
<g>
</g>
<g>
</g>
</svg>
