<?xml version="1.0" encoding="iso-8859-1"?>
<!-- Generator: Adobe Illustrator 19.0.0, SVG Export Plug-In . SVG Version: 6.00 Build 0)  -->
<svg version="1.1" id="Capa_1" xmlns="http://www.w3.org/2000/svg" xmlns:xlink="http://www.w3.org/1999/xlink" x="0px" y="0px"
	 viewBox="0 0 436.907 436.907" style="enable-background:new 0 0 436.907 436.907;" xml:space="preserve">
<circle style="fill:#EFC84A;" cx="218.453" cy="218.453" r="218.453"/>
<path style="opacity:0.1;enable-background:new    ;" d="M282.624,427.349c61.44-18.773,111.275-63.829,136.533-121.856
	L266.24,152.917h-45.397v9.899h-6.485v9.557h-7.168l-30.379-30.379h-24.235v30.379h-5.803v20.821h-17.067v20.821h-19.115
	l2.731,22.869l-22.869-2.048L282.624,427.349z"/>
<polyline style="fill:#CE412D;" points="311.979,269.312 285.696,294.912 151.211,294.912 119.808,264.192 "/>
<polygon style="fill:#E56353;" points="300.715,235.52 346.453,235.52 322.219,259.072 114.688,259.072 90.453,235.52 
	149.163,235.52 174.08,235.52 272.725,235.52 "/>
<polygon style="fill:#27A2DB;" points="127.317,271.701 309.589,271.701 322.219,259.072 114.688,259.072 "/>
<rect x="152.235" y="141.995" style="fill:#3A556A;" width="24.235" height="30.379"/>
<g>
	<rect x="160.427" y="147.456" style="fill:#D5D6DB;" width="7.509" height="7.509"/>
	<rect x="160.427" y="159.061" style="fill:#D5D6DB;" width="7.509" height="7.509"/>
</g>
<rect x="110.592" y="214.357" style="fill:#2F4859;" width="214.016" height="20.821"/>
<rect x="129.707" y="193.536" style="fill:#3A556A;" width="174.421" height="20.821"/>
<rect x="146.773" y="172.373" style="fill:#64798A;" width="138.24" height="20.821"/>
<g>
	<rect x="261.803" y="178.176" style="fill:#E1E6E9;" width="13.653" height="9.557"/>
	<rect x="240.981" y="178.176" style="fill:#E1E6E9;" width="13.653" height="9.557"/>
	<rect x="220.16" y="178.176" style="fill:#E1E6E9;" width="13.653" height="9.557"/>
	<rect x="199.339" y="178.176" style="fill:#E1E6E9;" width="13.653" height="9.557"/>
	<rect x="178.176" y="178.176" style="fill:#E1E6E9;" width="13.653" height="9.557"/>
	<rect x="157.696" y="178.176" style="fill:#E1E6E9;" width="13.653" height="9.557"/>
	<rect x="272.043" y="199.339" style="fill:#E1E6E9;" width="16.725" height="9.557"/>
	<rect x="246.784" y="199.339" style="fill:#E1E6E9;" width="16.725" height="9.557"/>
	<rect x="220.843" y="199.339" style="fill:#E1E6E9;" width="16.725" height="9.557"/>
	<rect x="195.584" y="199.339" style="fill:#E1E6E9;" width="16.725" height="9.557"/>
	<rect x="169.301" y="199.339" style="fill:#E1E6E9;" width="16.725" height="9.557"/>
	<rect x="144.043" y="199.339" style="fill:#E1E6E9;" width="16.725" height="9.557"/>
</g>
<g>
	<rect x="282.965" y="221.184" style="fill:#D5D6DB;" width="19.797" height="9.557"/>
	<rect x="252.587" y="221.184" style="fill:#D5D6DB;" width="19.797" height="9.557"/>
	<rect x="221.525" y="221.184" style="fill:#D5D6DB;" width="19.797" height="9.557"/>
	<rect x="191.488" y="221.184" style="fill:#D5D6DB;" width="19.797" height="9.557"/>
	<rect x="160.085" y="221.184" style="fill:#D5D6DB;" width="19.797" height="9.557"/>
	<rect x="129.707" y="221.184" style="fill:#D5D6DB;" width="19.797" height="9.557"/>
</g>
<rect x="214.357" y="162.816" style="fill:#E56353;" width="61.099" height="9.557"/>
<rect x="220.843" y="152.917" style="fill:#EBF0F3;" width="45.397" height="9.899"/>
<g>
</g>
<g>
</g>
<g>
</g>
<g>
</g>
<g>
</g>
<g>
</g>
<g>
</g>
<g>
</g>
<g>
</g>
<g>
</g>
<g>
</g>
<g>
</g>
<g>
</g>
<g>
</g>
<g>
</g>
</svg>
