<?xml version="1.0" encoding="utf-8"?>
<!-- Generator: Adobe Illustrator 24.0.3, SVG Export Plug-In . SVG Version: 6.00 Build 0)  -->
<svg version="1.1" id="Capa_1" xmlns="http://www.w3.org/2000/svg" xmlns:xlink="http://www.w3.org/1999/xlink" x="0px" y="0px"
	 viewBox="0 0 436.9 436.9" style="enable-background:new 0 0 436.9 436.9;" xml:space="preserve">
<style type="text/css">
	.st0{fill:#334D5C;}
	.st1{opacity:0.1;enable-background:new    ;}
	.st2{fill:#F6C358;}
	.st3{fill:#FCD462;}
	.st4{fill:#44C4A1;}
	.st5{fill:#E56353;}
	.st6{fill:#2D93BA;}
	.st7{fill:#27A2DB;}
	.st8{fill:#64798A;}
	.st9{fill:#D5D6DB;}
	.st10{fill:#EBF0F3;}
	.st11{fill:#2F4859;}
	.st12{fill:#3A556A;}
</style>
<g>
	<circle class="st0" cx="218.5" cy="218.5" r="218.5"/>
	<path class="st1" d="M346.3,235.9V221h0.1v-9.8h-0.2c-0.1-0.9-0.2-1.8-0.5-2.8h0.6c0-2.5-0.5-4.9-1.6-7.2l-15-31.2
		c-2.2-4.5-7.1-7.4-12.5-7.4H108.9c-5.3,0-10,2.1-13.4,5.3l0,0L3.9,259.5c15.8,83,78.5,149.4,159.5,170.4l177.3-177.3
		C347.7,249.2,346.3,241.5,346.3,235.9z"/>
	<path class="st2" d="M344.7,205.2l-15-34.4c-2.2-5-7.1-8.2-12.5-8.2H108.8c-10.2,0-18.4,8.2-18.4,18.4v54.9
		c0,10.2,8.2,18.4,18.4,18.4h224.7c7.1,0,12.8-5.7,12.8-12.8v-28.4C346.3,210.4,345.8,207.7,344.7,205.2z"/>
	<path class="st3" d="M346.3,208.5H90.5v-29.1c0-9.2,8.2-16.7,18.4-16.7h208.3c5.4,0,10.3,2.9,12.5,7.4l15,31.2
		C345.8,203.5,346.3,206,346.3,208.5L346.3,208.5z"/>
	<path class="st4" d="M90.5,235.9c0,10.2,8.2,18.4,18.4,18.4h224.7c15.1-1,12.8-11.3,12.8-18.4"/>
	<path class="st5" d="M337.8,232.3v-2.6c0-2,1.6-3.6,3.6-3.6h5v9.8h-5C339.4,235.9,337.8,234.3,337.8,232.3z"/>
	<path class="st6" d="M316.2,178.6c2.8,0,5.4,1.6,6.6,4.1l11.3,22.7h-33.7v-26.8H316.2z"/>
	<path class="st7" d="M322.8,182.7c-1.2-2.5-3.8-4.1-6.6-4.1h-15.8v26.8L322.8,182.7z"/>
	<path class="st8" d="M99,232.3v-2.6c0-2-1.6-3.6-3.6-3.6h-5v9.8h5C97.4,235.9,99,234.3,99,232.3z"/>
	<g>
		<rect x="250.8" y="178.6" class="st9" width="38" height="26.8"/>
		<rect x="203.2" y="178.6" class="st9" width="38" height="26.8"/>
		<rect x="155.5" y="178.6" class="st9" width="38" height="26.8"/>
		<rect x="107.9" y="178.6" class="st9" width="38" height="26.8"/>
	</g>
	<g>
		<polygon class="st10" points="250.8,178.6 288.8,178.6 288.8,205.4 		"/>
		<polygon class="st10" points="203.2,178.6 241.2,178.6 241.2,205.4 		"/>
		<polygon class="st10" points="155.6,178.6 193.5,178.6 193.5,205.4 		"/>
		<polygon class="st10" points="107.9,178.6 145.9,178.6 145.9,205.4 		"/>
	</g>
	<path class="st8" d="M337.8,217.4v-2.6c0-2,1.6-3.6,3.6-3.6h5l0,9.8h-5C339.4,221,337.8,219.4,337.8,217.4z"/>
	<path class="st5" d="M99.1,217.4v-2.6c0-2-1.6-3.6-3.6-3.6h-5v9.8h5C97.5,221,99.1,219.4,99.1,217.4z"/>
	<circle class="st11" cx="132.9" cy="254.3" r="20"/>
	<circle class="st9" cx="132.9" cy="254.3" r="13"/>
	<circle class="st12" cx="132.9" cy="254.3" r="6.7"/>
	<circle class="st11" cx="308.8" cy="254.3" r="20"/>
	<ellipse transform="matrix(0.1891 -0.982 0.982 0.1891 0.6633 509.3892)" class="st9" cx="308.8" cy="254.3" rx="13" ry="13"/>
	
		<ellipse transform="matrix(0.1602 -0.9871 0.9871 0.1602 8.2893 518.3289)" class="st12" cx="308.8" cy="254.3" rx="6.7" ry="6.7"/>
</g>
</svg>
