<?xml version="1.0" encoding="iso-8859-1"?>
<!-- Generator: Adobe Illustrator 19.0.0, SVG Export Plug-In . SVG Version: 6.00 Build 0)  -->
<svg version="1.1" id="Capa_1" xmlns="http://www.w3.org/2000/svg" xmlns:xlink="http://www.w3.org/1999/xlink" x="0px" y="0px"
	 viewBox="0 0 436.907 436.907" style="enable-background:new 0 0 436.907 436.907;" xml:space="preserve">
<circle style="fill:#45B39C;" cx="218.453" cy="218.453" r="218.453"/>
<path style="opacity:0.1;enable-background:new    ;" d="M90.449,255.863c0,10.757,4.897,20.373,12.573,26.748l151.313,151.312
	c78.976-13.056,143.641-68.442,169.906-142.098l-121.16-121.16l-0.004,0.008c-2.673-3.784-5.93-7.205-9.328-10.178
	c-4.642-4.096-9.557-7.407-13.483-9.796c-0.717-0.41-1.433-0.853-2.15-1.263c-0.137-0.068-0.273-0.136-0.41-0.239
	c-0.785-0.444-1.57-0.887-2.389-1.297c-1.911-1.024-3.14-1.604-3.14-1.604l-6.588,4.984l-2.56,1.946l-9.762,7.373l23.688,26.829
	c-3.698-3.499-9.57-8.475-16.358-12.195l-3.848-3.848l-14.165-2.355c-1.365-0.205-2.628,0.717-2.867,2.048l-0.717,4.301
	c-0.098,0.632,0.074,1.249,0.411,1.756l-0.008,0.004l0.019,0.019c0.179,0.262,0.405,0.489,0.671,0.671l8.279,8.279
	c-0.859-0.587-1.692-1.149-2.443-1.65c-1.16-0.922-2.389-1.741-3.686-2.389c-0.171-0.102-0.273-0.171-0.273-0.171
	c-1.604-1.024-3.448-1.57-5.359-1.809c-1.468-0.307-2.935-0.444-4.437-0.444l-23.245,0.273c-3.993,0.034-7.714,1.946-10.137,5.12
	l-55.774,0.068l-1.98-2.458c-1.365-1.707-3.413-2.697-5.564-2.731H90.449c0,0,0.443,3.209,2.935,7.339H93.35
	c0,0,0.068,0.068,0.136,0.205c1.4,2.253,3.413,4.745,6.315,7.168l26.577,26.577c-0.407-0.014-0.806-0.055-1.216-0.055
	C106.013,221.15,90.449,236.68,90.449,255.863z"/>
<path style="fill:#3A556A;" d="M276.975,195.32c-0.184-0.205-18.837-20.55-34.441-19.631l-0.335-5.524
	c18.561-1.086,38.068,20.539,38.895,21.458L276.975,195.32z"/>
<path style="fill:#D5D6DB;" d="M179.01,270.844h83.022c0,0-3.69-58.115,53.503-68.262c0,0-2.767-36.898-43.356-56.27l-18.91,14.298
	l24.445,27.674c0,0-8.993,16.915-26.29,1.845c-0.63-0.548-1.457-1.477-2.346-2.563c-4.145-5.067-10.376-7.995-16.922-7.92
	l-23.221,0.264c-4.034,0.046-7.816,1.972-10.226,5.208l-12.319,16.543l-30.441-0.461l-14.93-18.561
	c-1.354-1.683-3.384-2.679-5.543-2.72H90.453c0,0,2.315,18.47,30.441,24.049c15.337,3.042,46.799,8.305,49.813,37.821
	c0.738,7.227,0,29.058,0,29.058H179.01z"/>
<path style="fill:#DC8744;" d="M253.268,160.61l43.253,47.968c0,0,8.602-4.19,19.013-5.996c0,0-0.461-35.054-43.356-56.27
	L253.268,160.61z"/>
<path style="fill:#E56353;" d="M272.127,194.197c0,0,23.997-32.23,29.466,12.188c0,0-23.713,10.254-31.439,27.926l-88.758,1.773
	c-4.603,0.092-8.383-3.614-8.383-8.218v0c0-4.539,3.68-8.219,8.219-8.219l0,0c2.593,0,4.695-2.102,4.695-4.695V201.66l10.264-13.164
	c5.931-8.643,9.738-8.4,16.307-8.627h20.297c3.173-0.11,6.507,0.322,9.182,2.033c0,0,11.29,7.063,15.903,11.456
	C260.464,195.818,272.127,194.197,272.127,194.197z"/>
<path style="fill:#3A556A;" d="M258.06,156.987l14.118-10.675c0,0,24.099,11.012,33.59,28.669l-17.274,6.385L258.06,156.987z"/>
<polygon style="fill:#64798A;" points="265.592,151.292 263.026,153.232 284.401,172.89 287.457,170.469 "/>
<ellipse transform="matrix(-0.4817 -0.8763 0.8763 -0.4817 291.1001 545.5999)" style="fill:#FCD462;" cx="306.891" cy="186.718" rx="9.653" ry="4.526"/>
<ellipse transform="matrix(-0.4817 -0.8763 0.8763 -0.4817 291.9225 546.0585)" style="fill:#F6C358;" cx="307.438" cy="186.704" rx="6.803" ry="3.191"/>
<polygon style="fill:#3A556A;" points="143.007,185.109 155.914,201.735 185.894,201.735 199.212,185.033 "/>
<path style="fill:#D15241;" d="M255.217,180.566l-14.154-2.337c-1.356-0.224-2.274-1.505-2.05-2.861l0.707-4.281
	c0.224-1.356,1.505-2.274,2.861-2.05l14.154,2.337L255.217,180.566z"/>
<circle style="fill:#2F4859;" cx="311.74" cy="255.874" r="34.72"/>
<circle style="fill:#D5D6DB;" cx="311.74" cy="255.874" r="22.559"/>
<circle style="fill:#3A556A;" cx="311.74" cy="255.874" r="9.731"/>
<circle style="fill:#2F4859;" cx="125.174" cy="255.874" r="34.72"/>
<circle style="fill:#D5D6DB;" cx="125.174" cy="255.874" r="22.559"/>
<circle style="fill:#3A556A;" cx="125.174" cy="255.874" r="9.731"/>
<path style="fill:#D15241;" d="M93.36,187.264c0,0,6.386,9.553,14.787,12.916h6.746l-11.761-12.916H93.36z"/>
<g>
	<rect x="123.699" y="250.334" style="fill:#3A556A;" width="47.305" height="11.069"/>
	
		<rect x="287.093" y="218.547" transform="matrix(-0.5858 0.8105 -0.8105 -0.5858 660.2562 146.7369)" style="fill:#3A556A;" width="11.073" height="47.097"/>
</g>
<ellipse style="fill:#FCD462;" cx="221.969" cy="181.521" rx="10.609" ry="1.662"/>
<g>
</g>
<g>
</g>
<g>
</g>
<g>
</g>
<g>
</g>
<g>
</g>
<g>
</g>
<g>
</g>
<g>
</g>
<g>
</g>
<g>
</g>
<g>
</g>
<g>
</g>
<g>
</g>
<g>
</g>
</svg>
