<?xml version="1.0" encoding="iso-8859-1"?>
<!-- Generator: Adobe Illustrator 19.0.0, SVG Export Plug-In . SVG Version: 6.00 Build 0)  -->
<svg version="1.1" id="Capa_1" xmlns="http://www.w3.org/2000/svg" xmlns:xlink="http://www.w3.org/1999/xlink" x="0px" y="0px"
	 viewBox="0 0 436.907 436.907" style="enable-background:new 0 0 436.907 436.907;" xml:space="preserve">
<circle style="fill:#E05B49;" cx="218.453" cy="218.453" r="218.453"/>
<path style="opacity:0.1;enable-background:new    ;" d="M317.114,115.004c-5.544-5.497-17.86,1.8-17.86,1.8
	c-11.469-7.372-19.593,2.97-19.593,2.97c-17.34,0.717-10.684,15.019-10.684,15.019h-1.604c-3.993,0-7.27,3.243-7.236,7.27
	c0.068,8.431,1.126,21.948,6.553,27.682v16.247h-0.035l-30.576-30.576l-0.012,0.018c-2.592-2.96-6.774-4.906-11.532-4.906
	c-5.624,0-10.437,2.716-12.761,6.626l-10.551-10.551H107.8c-9.625,0.171-17.34,9.694-17.34,19.32v7.748l17.715,17.715v63.556
	l26.038,26.038l0.245,0.621c-2.697,4.267-4.267,9.318-4.267,14.712c0,8.23,3.609,15.597,9.302,20.667l116.625,116.626
	c97.66-16.983,173.016-98.774,180.165-199.473L317.146,114.993L317.114,115.004z"/>
<circle style="fill:#3A556A;" cx="157.833" cy="296.311" r="27.662"/>
<circle style="fill:#D5D6DB;" cx="157.833" cy="296.311" r="15.517"/>
<circle style="fill:#3A556A;" cx="222.686" cy="296.311" r="27.662"/>
<circle style="fill:#D5D6DB;" cx="222.686" cy="296.311" r="15.517"/>
<rect x="153.668" y="293.171" style="fill:#3A556A;" width="73.847" height="9.602"/>
<path style="fill:#64798A;" d="M268.963,134.785c0,0-6.646-14.282,10.708-15.02c0,0,8.123-10.338,19.569-2.954
	c0,0,15.508-9.231,19.569,0.738c0,0,5.908,17.723-12.554,12.923c0,0-5.538,14.031-17.354-0.738c0,0-0.738,11.579-9.969,5.051
	H268.963z"/>
<path style="fill:#31978C;" d="M346.453,307.575c0,0-8.862-46.968-43.323-57.941h9.354l3.939-26.551l-7.877-31.191h-18.708v-5.907
	h-5.415V170.23c0,0,9.005-15.848,7.604-29.06c-0.387-3.651-3.55-6.386-7.222-6.386H267.38c-4.016,0-7.282,3.252-7.242,7.268
	c0.083,8.449,1.122,21.966,6.561,27.685v16.247h-4.923v4.184v1.723v3.441h-19.029v-3.441h-7.063v-5.907h-21.209v5.907h-6.361v4.431
	h-16.246v-24.615h9.354V146.6h-93.406c-9.639,0.172-17.363,9.695-17.363,19.335v7.742h17.723v81.273h15.754l10.831,27.36H303.13
	c0,0,14.769,10.486,6.892,25.265H346.453z"/>
<path style="fill:#FCD462;" d="M108.176,254.95h15.754l10.831,27.36H303.13c0,0,14.769,10.487,6.892,25.265h36.431
	c0,0-8.862-46.968-43.323-57.941h9.354H108.176V254.95z"/>
<g>
	<polygon style="fill:#3EA69B;" points="233.393,159.888 216.409,159.888 217.886,185.985 231.916,185.985 	"/>
	<path style="fill:#3EA69B;" d="M210.255,162.349c0-6.525,6.392-11.815,14.277-11.815s14.277,5.29,14.277,11.815"/>
</g>
<polygon style="fill:#FCD462;" points="314.43,215.196 108.176,215.196 108.176,229.057 315.537,229.057 316.423,223.084 "/>
<rect x="113.869" y="162.338" style="fill:#D5D6DB;" width="72.363" height="38.646"/>
<polygon style="fill:#EBF0F3;" points="113.886,200.995 113.886,162.349 186.255,162.349 "/>
<circle style="fill:#3A556A;" cx="271.599" cy="293.171" r="11.848"/>
<circle style="fill:#D5D6DB;" cx="271.599" cy="293.171" r="6.646"/>
<circle style="fill:#3A556A;" cx="299.383" cy="293.171" r="11.848"/>
<circle style="fill:#D5D6DB;" cx="299.383" cy="293.171" r="6.646"/>
<g>
</g>
<g>
</g>
<g>
</g>
<g>
</g>
<g>
</g>
<g>
</g>
<g>
</g>
<g>
</g>
<g>
</g>
<g>
</g>
<g>
</g>
<g>
</g>
<g>
</g>
<g>
</g>
<g>
</g>
</svg>
